<?xml version="1.0" standalone="no"?>
<!DOCTYPE svg PUBLIC "-//W3C//DTD SVG 20010904//EN"
 "http://www.w3.org/TR/2001/REC-SVG-20010904/DTD/svg10.dtd">
<svg version="1.0" xmlns="http://www.w3.org/2000/svg"
 width="1536.000000pt" height="1024.000000pt" viewBox="0 0 1536.000000 1024.000000"
 preserveAspectRatio="xMidYMid meet">

<g transform="translate(0.000000,1024.000000) scale(0.100000,-0.100000)"
fill="#000000" stroke="none">
<path d="M4714 8342 c-52 -33 -74 -73 -72 -131 2 -44 -2 -54 -27 -81 -54 -56
-94 -75 -152 -72 -51 4 -54 3 -109 -50 -71 -66 -232 -247 -343 -384 -76 -94
-87 -104 -117 -104 -52 0 -135 -20 -185 -46 -45 -23 -122 -99 -141 -140 -5
-11 -40 -35 -76 -53 -100 -49 -298 -169 -372 -225 -374 -284 -649 -711 -741
-1151 -78 -375 -64 -736 41 -1090 l12 -40 -97 -168 c-112 -192 -82 -176 -275
-147 -121 18 -139 16 -140 -11 0 -13 60 -81 97 -110 21 -16 45 -36 54 -43 9
-7 22 -15 28 -17 7 -3 -10 -38 -45 -89 -72 -108 -89 -126 -123 -133 -21 -5
-36 -20 -59 -59 -27 -49 -34 -55 -88 -72 -33 -10 -99 -37 -149 -61 -207 -98
-261 -208 -171 -349 126 -198 570 -355 1356 -481 185 -30 622 -70 935 -86 509
-26 1547 -11 2100 31 72 5 253 19 404 30 420 31 950 88 1406 151 152 21 186
25 253 34 78 10 122 17 282 45 91 16 221 39 290 50 126 22 170 31 555 114 460
99 740 172 1170 303 710 217 1095 381 1360 580 128 97 321 273 298 273 -6 0
-49 -31 -95 -70 -45 -38 -87 -68 -92 -67 -6 2 -39 -17 -75 -41 -85 -57 -393
-210 -496 -246 -108 -38 -326 -125 -345 -137 -11 -8 -5 -9 19 -5 19 4 33 4 30
2 -14 -14 -501 -166 -527 -165 -9 0 -1 6 18 11 34 11 34 11 10 18 -14 4 -35 6
-48 5 -17 -2 -22 2 -17 13 4 11 2 12 -7 5 -14 -11 -198 -47 -204 -40 -2 2 24
12 58 22 35 9 59 19 53 21 -18 7 -239 -69 -230 -78 3 -3 -15 -9 -40 -12 -25
-4 -45 -11 -45 -15 0 -5 12 -6 26 -3 42 8 20 -15 -37 -39 -33 -15 -47 -25 -40
-32 7 -7 20 -6 40 3 16 6 36 10 42 8 7 -2 -7 -9 -32 -15 -24 -6 -83 -20 -130
-32 -100 -24 -128 -26 -82 -6 l33 14 -23 24 c-12 13 -29 26 -37 30 -10 3 -3 8
18 12 18 4 35 12 38 17 7 10 -6 8 -181 -37 -651 -168 -1860 -376 -2730 -469
-440 -48 -545 -57 -801 -76 -978 -69 -2051 -75 -2729 -14 -317 28 -710 84
-800 114 l-30 10 30 -4 c17 -2 109 -18 205 -34 182 -32 588 -75 865 -92 438
-27 1115 -23 1555 10 183 13 289 20 435 26 72 3 142 10 157 16 15 6 40 7 55 4
18 -4 23 -3 15 2 -13 9 118 22 263 27 77 3 343 23 465 35 52 5 154 14 225 20
112 9 378 41 660 81 162 23 585 90 745 120 629 114 849 162 720 156 -25 -1
-48 -6 -52 -12 -5 -6 -8 -5 -8 3 0 7 8 15 18 18 9 3 40 13 67 23 28 10 77 24
110 31 33 7 74 19 91 26 17 7 55 19 85 25 30 6 83 19 119 29 36 10 103 26 150
35 144 29 214 46 240 60 57 31 103 46 250 80 199 47 566 148 552 153 -5 1 -50
-8 -98 -21 -98 -27 -343 -86 -584 -141 -181 -41 -1194 -244 -1403 -282 -218
-39 -690 -120 -802 -138 -55 -8 -201 -32 -323 -52 -123 -19 -226 -34 -228 -31
-5 4 152 33 516 92 647 105 1264 231 1716 349 184 48 219 59 229 75 4 8 -2 8
-20 1 -15 -6 -38 -10 -51 -10 -17 0 -23 -4 -18 -12 4 -6 3 -8 -3 -5 -6 4 -30
0 -53 -8 -24 -8 -45 -14 -47 -12 -5 6 56 31 222 91 83 29 181 72 220 95 38 22
75 41 80 41 12 0 170 106 217 145 35 30 28 33 -12 5 -16 -11 -32 -19 -37 -18
-12 4 -125 -33 -119 -39 3 -3 26 2 52 11 26 9 49 14 51 12 6 -6 -184 -118
-203 -120 -10 0 -26 -9 -36 -18 -10 -10 -26 -18 -36 -18 -11 0 -32 -6 -48 -14
-101 -51 -663 -207 -1009 -281 -507 -109 -1247 -243 -1520 -275 -49 -6 -178
-25 -285 -41 -107 -16 -249 -36 -315 -44 -66 -7 -208 -25 -315 -39 -294 -38
-664 -76 -1235 -127 -598 -53 -1631 -40 -2060 26 -55 9 -116 17 -135 19 -113
12 -550 113 -550 127 0 5 -11 9 -24 9 -14 0 -64 16 -112 35 -47 19 -115 44
-150 55 -64 19 -157 72 -183 103 -21 26 0 20 54 -14 64 -41 237 -111 354 -144
164 -46 520 -112 721 -135 197 -21 577 -41 925 -46 448 -8 785 8 1417 65 117
11 274 25 348 31 210 17 1017 118 1410 175 19 3 67 10 105 15 39 6 86 13 105
15 20 3 60 9 89 15 29 5 56 8 60 6 9 -6 152 21 160 30 7 8 -86 -1 -229 -22
-219 -31 -243 -34 -248 -30 -2 3 9 8 24 12 16 4 36 12 44 19 8 7 26 15 40 18
78 16 220 49 255 59 38 11 39 11 15 19 -17 6 -8 7 30 5 39 -3 49 -2 35 5 -16
8 -14 8 11 5 18 -3 76 7 135 24 116 32 207 62 169 56 -88 -15 -156 -32 -161
-40 -4 -5 -16 -6 -28 -3 -12 3 -23 1 -26 -4 -3 -4 -16 -4 -28 0 -13 5 -30 6
-38 1 -23 -12 -78 -20 -83 -12 -3 5 -38 4 -78 -2 -61 -8 -68 -11 -43 -17 21
-5 12 -7 -30 -6 -33 1 -107 -7 -165 -16 -206 -34 -449 -67 -765 -101 -176 -20
-369 -42 -429 -51 -60 -8 -111 -13 -113 -11 -14 14 87 38 257 61 107 14 272
39 365 55 94 15 230 38 304 50 74 12 143 27 155 35 12 7 37 16 56 20 19 4 42
11 50 16 27 16 -72 -2 -154 -28 -61 -19 -91 -23 -128 -18 -26 4 -48 11 -48 16
0 10 19 15 135 34 79 13 82 14 25 10 -36 -3 -110 -10 -165 -15 -273 -28 -515
-46 -756 -57 l-136 -6 -7 28 c-14 56 -261 283 -346 317 -124 51 -579 79 -1553
94 -273 4 -470 11 -473 16 -8 13 7 28 32 32 10 1 183 -3 384 -9 201 -7 511
-11 690 -10 290 3 333 5 399 23 91 25 121 51 121 104 0 33 -7 46 -45 83 -32
30 -59 47 -93 55 -30 7 -269 15 -653 22 l-606 11 -26 53 -26 52 162 4 162 4
59 39 c33 22 77 49 99 61 49 25 67 49 67 90 0 43 -33 81 -83 95 -25 7 -160 14
-331 18 -275 6 -289 7 -300 26 -6 11 -28 46 -48 79 -45 70 -62 123 -90 281
-26 154 -22 416 10 565 56 261 188 516 366 706 l74 79 34 -32 c80 -77 201 -82
321 -14 56 31 139 19 93 -14 -15 -12 -16 -22 -6 -96 5 -46 10 -102 10 -125 0
-25 6 -47 15 -54 11 -9 15 -33 15 -84 0 -82 14 -110 76 -155 116 -85 289 -59
345 52 18 34 20 51 15 102 -5 54 -4 64 14 80 17 15 20 31 20 105 0 82 1 89 25
104 14 9 25 14 25 11 0 -16 46 29 60 58 8 18 30 40 50 49 37 19 50 41 44 73
-2 11 -6 57 -8 102 -5 90 -10 100 -74 157 -46 42 -132 172 -132 200 0 20 36
77 200 316 128 186 133 198 114 235 -8 15 -14 31 -14 37 0 18 81 118 96 118
19 0 102 76 120 111 48 94 -38 229 -191 300 -83 40 -150 47 -191 21z m-8 -57
c-19 -15 -46 -20 -46 -10 0 6 40 24 55 24 6 0 1 -6 -9 -14z m268 -27 c20 -16
41 -39 47 -51 7 -12 8 -18 3 -14 -4 4 -13 -1 -18 -11 -6 -11 -26 -36 -44 -56
-37 -42 -43 -41 -120 21 -36 29 -40 36 -28 48 7 8 26 34 41 58 24 37 32 43 55
39 15 -2 44 -17 64 -34z m-334 -131 c0 -2 -12 -14 -27 -28 l-28 -24 24 28 c23
25 31 32 31 24z m250 -52 c20 -22 21 -26 5 -17 -11 7 -36 25 -55 42 -35 31
-35 31 -5 17 17 -9 41 -27 55 -42z m-58 4 c15 -11 28 -26 28 -34 0 -7 -18 -30
-40 -51 -22 -21 -42 -46 -46 -56 -8 -26 -51 -20 -101 14 l-41 28 61 65 c68 72
81 75 139 34z m-356 -56 c27 -9 60 -24 73 -35 13 -10 27 -18 32 -18 45 0 309
-226 293 -251 -4 -8 -9 -8 -17 0 -16 16 -27 13 -20 -5 3 -9 -3 -23 -16 -35
-12 -11 -33 -37 -46 -57 -13 -20 -60 -84 -104 -142 -45 -58 -81 -111 -81 -118
0 -7 -4 -11 -8 -8 -5 3 -32 -30 -60 -73 -29 -42 -69 -93 -89 -112 -33 -31 -31
-25 22 51 32 47 85 121 119 165 161 213 223 298 239 324 17 29 17 30 -10 62
-15 17 -45 45 -66 60 -33 24 -41 26 -53 15 -7 -8 -17 -16 -22 -18 -4 -1 -45
-52 -90 -113 -45 -60 -87 -117 -94 -125 -7 -8 -26 -30 -41 -50 -29 -36 -83
-99 -150 -175 -30 -35 -37 -48 -31 -69 9 -38 -2 -32 -23 11 -10 21 -41 62 -70
93 -51 52 -68 75 -39 51 18 -15 39 3 118 105 155 199 301 375 320 385 20 11
17 14 -43 41 -104 47 -107 47 -165 -14 -28 -29 -81 -89 -118 -133 -245 -290
-273 -321 -280 -314 -18 17 426 519 460 519 6 0 33 -7 60 -17z m-502 -548
c117 -35 202 -108 232 -197 39 -120 7 -247 -83 -323 -26 -22 -44 -34 -40 -27
11 17 5 16 -55 -12 -63 -29 -108 -40 -108 -27 0 5 6 12 13 14 6 3 -12 6 -40 6
-29 1 -53 6 -53 11 0 6 20 8 53 4 29 -3 68 -1 87 4 63 19 107 37 126 52 16 12
17 12 7 0 -23 -25 -13 -34 12 -10 13 12 23 25 22 29 -1 3 9 23 22 44 15 25 20
41 13 50 -5 7 -12 42 -16 79 -7 76 -14 100 -26 93 -5 -3 -11 3 -14 12 -10 30
-67 84 -105 100 -20 9 -63 15 -97 15 -65 -1 -102 -14 -162 -60 -18 -14 -35
-22 -38 -19 -8 8 19 47 33 47 7 0 16 6 20 13 12 21 59 49 96 57 24 6 27 8 9 9
-14 1 -21 5 -16 12 4 7 0 9 -12 6 -11 -3 -39 -11 -63 -18 -53 -16 -136 -88
-153 -134 -8 -23 -15 -31 -20 -23 -11 19 -38 -53 -39 -104 -1 -40 -1 -41 -9
-15 -5 16 -5 53 1 85 5 31 9 60 9 63 0 15 84 115 114 136 71 51 170 61 280 28z
m27 -106 c45 -15 94 -63 120 -117 28 -58 24 -153 -10 -200 -12 -18 -26 -30
-31 -27 -4 3 -14 -2 -21 -11 -28 -34 -114 -56 -174 -44 l-40 8 45 1 c102 3
175 42 211 113 22 42 29 122 13 138 -5 5 -9 -13 -9 -45 0 -43 -6 -61 -30 -96
-44 -63 -80 -80 -169 -82 -80 -2 -112 12 -144 63 -14 23 -13 22 18 -5 l33 -30
-25 35 c-40 54 -52 107 -38 160 7 25 11 46 9 47 -10 4 50 56 86 73 71 33 101
37 156 19z m-324 -161 c-3 -8 -6 -5 -6 6 -1 11 2 17 5 13 3 -3 4 -12 1 -19z
m-157 -26 c0 -5 -24 -22 -52 -37 -141 -76 -244 -158 -383 -305 -325 -343 -501
-746 -561 -1285 -18 -165 -15 -311 11 -475 8 -52 15 -106 15 -119 0 -53 -11
-8 -30 120 -81 546 -12 975 218 1371 163 280 446 560 707 700 79 42 75 41 75
30z m1010 -64 c33 -33 61 -74 106 -153 23 -42 23 -44 4 -50 -27 -9 -91 5 -121
26 -15 11 -35 16 -47 12 -15 -4 -22 -1 -22 10 0 8 -13 29 -29 46 l-29 31 21
27 c29 40 70 83 77 83 3 0 21 -15 40 -32z m-13 -265 c-20 -2 -52 -2 -70 0 -17
2 0 4 38 4 39 0 53 -2 32 -4z m150 1 c-3 -3 -12 -4 -19 -1 -8 3 -5 6 6 6 11 1
17 -2 13 -5z m-505 -103 c-2 -39 -7 -71 -10 -71 -8 0 -13 118 -7 138 11 32 20
-2 17 -67z m313 53 c99 -3 180 -6 181 -7 0 -1 -4 -31 -10 -67 l-11 -65 -55 -8
c-63 -9 -273 0 -316 13 l-29 8 30 1 c29 1 30 3 30 39 -2 49 -13 82 -30 82 -8
0 -17 5 -21 11 -5 9 1 10 22 5 16 -4 110 -9 209 -12z m-228 -71 c-3 -10 -5 -2
-5 17 0 19 2 27 5 18 2 -10 2 -26 0 -35z m-922 -35 c-20 -24 -62 -74 -94 -113
-271 -327 -406 -821 -346 -1270 18 -132 18 -152 0 -104 -39 107 -44 433 -10
649 31 192 118 414 228 582 47 73 239 298 253 298 3 0 -11 -19 -31 -42z m812
-44 c-3 -3 -12 -4 -19 -1 -8 3 -5 6 6 6 11 1 17 -2 13 -5z m307 -59 c7 -19 -4
-19 -40 0 l-29 15 31 0 c19 0 34 -6 38 -15z m-313 -58 c-6 -6 -11 -41 -11 -79
0 -53 4 -69 18 -77 23 -14 6 -14 -19 -1 -17 9 -19 22 -19 101 0 88 0 90 21 78
15 -8 18 -14 10 -22z m340 -11 c-5 -6 -5 -20 0 -31 4 -11 8 -46 8 -77 1 -32 6
-58 11 -58 6 0 10 -4 10 -9 0 -12 -151 -14 -180 -2 -22 8 -22 10 -5 10 18 1
20 7 17 68 -3 55 -1 69 14 80 10 7 12 13 6 13 -7 0 -12 3 -12 8 0 4 32 8 70 8
51 1 68 -2 61 -10z m-322 -263 c0 -41 -2 -45 -11 -26 -10 20 -4 73 7 73 3 0 5
-21 4 -47z m366 34 c17 -13 16 -14 -6 -13 -16 1 -23 -4 -22 -14 1 -8 -6 -26
-16 -40 -21 -27 -63 -31 -115 -11 -24 10 -28 16 -24 42 3 22 1 28 -8 25 -8 -3
-16 -1 -19 4 -3 5 30 11 77 13 46 1 90 4 99 5 8 1 23 -4 34 -11z m-1461 -316
c-4 -17 -9 -30 -11 -27 -3 2 -2 19 2 36 9 41 17 33 9 -9z m-25 -123 c-9 -47
-14 -149 -14 -283 0 -187 5 -252 31 -387 3 -16 1 -28 -4 -28 -12 0 -39 179
-47 310 -3 58 -1 159 5 225 11 125 30 248 38 241 2 -3 -2 -38 -9 -78z m-32
-743 c18 -8 40 -12 47 -9 7 3 26 -7 42 -21 l29 -27 -29 21 c-38 28 -58 27 -25
-2 53 -45 81 -98 128 -244 27 -81 69 -190 95 -240 25 -51 46 -94 46 -96 0 -2
-14 -2 -30 1 -27 4 -35 14 -71 90 -23 47 -59 138 -81 201 -53 152 -68 181
-124 230 -83 73 -205 83 -291 22 -25 -18 -54 -34 -65 -36 -25 -5 -38 -14 -38
-27 0 -5 7 -7 16 -4 13 5 11 -2 -7 -31 -24 -41 -100 -175 -209 -368 -133 -237
-135 -240 -158 -243 -15 -2 -25 3 -30 18 -8 21 -8 21 -21 -3 -7 -14 -24 -27
-37 -30 -13 -2 -22 -1 -19 3 2 3 -19 15 -46 24 -69 25 -57 29 16 6 l60 -19 23
27 c12 15 41 61 64 102 92 168 254 448 283 488 58 83 110 135 155 154 83 37
207 42 277 13z m-63 -196 c36 -17 60 -68 52 -111 -4 -20 -13 -39 -21 -42 -10
-3 -12 0 -9 12 5 15 4 15 -8 2 -7 -8 -22 -22 -32 -30 -18 -14 -19 -14 -8 7 17
31 15 37 -15 73 -32 39 -60 50 -93 38 l-24 -9 19 21 c21 24 69 48 97 49 9 1
28 -4 42 -10z m993 -17 c85 -13 72 -21 -37 -21 -56 0 -105 -3 -110 -6 -5 -3
-30 3 -57 14 l-48 19 50 5 c54 5 119 1 202 -11z m-81 -48 c37 -4 42 -8 46 -34
4 -23 1 -30 -13 -30 -9 0 -19 -7 -23 -15 -4 -13 -31 -15 -163 -14 -87 1 -143
4 -125 8 18 3 33 11 34 16 2 13 20 31 38 37 22 8 -76 17 -240 22 -80 3 -147 6
-150 8 -8 4 460 13 510 10 25 -2 64 -5 86 -8z m158 10 c23 -9 20 -23 -4 -17
-11 3 -20 9 -20 14 0 11 3 11 24 3z m251 -413 c325 -3 596 -10 604 -15 24 -15
-9 -26 -84 -26 l-70 0 0 -45 c0 -40 3 -47 23 -52 13 -3 38 -3 56 0 18 3 39 1
47 -4 8 -5 -191 -8 -491 -7 -310 1 -461 4 -390 8 63 4 133 8 155 10 22 1 32 4
23 7 -14 3 -16 9 -8 22 5 10 6 21 3 25 -3 3 2 6 11 6 12 0 16 5 13 14 -4 11 2
14 21 14 69 -3 255 3 250 7 -6 6 -588 22 -1123 30 -308 5 -417 4 -437 -5 -16
-8 -32 -28 -42 -53 -9 -22 -18 -38 -21 -35 -3 3 4 28 16 56 l22 52 416 -1
c229 0 682 -4 1006 -8z m-2030 -151 c13 -6 15 -9 5 -9 -8 0 -22 4 -30 9 -18
12 -2 12 25 0z m1360 -181 c266 -14 1517 -22 1547 -10 16 7 -10 10 -92 11 -63
1 -135 5 -160 10 -29 6 18 7 135 4 205 -6 269 -20 375 -81 61 -35 190 -152
190 -172 0 -5 -26 -11 -57 -14 -53 -4 -267 -33 -321 -42 -131 -22 -327 -29
-937 -29 -692 -1 -996 10 -1340 49 -165 19 -197 27 -70 19 316 -20 476 -25
945 -29 289 -2 505 0 480 3 -54 9 -76 20 -62 34 10 10 5 48 -7 48 -4 0 -6 16
-6 35 0 19 3 35 6 35 4 0 9 11 13 24 7 29 45 35 235 37 75 1 -76 8 -334 15
-568 15 -1242 51 -1290 69 -18 7 544 -6 750 -16z m-1355 -173 c41 -9 98 -20
125 -25 46 -10 44 -10 -30 -6 -87 4 -180 25 -198 45 -9 10 -8 11 8 7 11 -3 54
-12 95 -21z m223 -43 c-7 -2 -21 -2 -30 0 -10 3 -4 5 12 5 17 0 24 -2 18 -5z
m-633 -23 c-6 -11 -16 -20 -22 -20 -6 0 -3 9 7 20 10 11 20 20 22 20 2 0 -1
-9 -7 -20z m420 -20 c47 -10 80 -18 73 -19 -25 -2 -169 21 -183 30 -24 14 13
10 110 -11z m-472 -17 c-2 -5 -14 -36 -27 -70 -18 -47 -28 -62 -46 -66 -51 -9
-65 51 -21 92 34 32 104 64 94 44z m350 -13 c-7 -10 -14 -17 -17 -15 -4 4 18
35 25 35 2 0 -1 -9 -8 -20z m8372 0 c-8 -5 -19 -10 -25 -10 -5 0 -3 5 5 10 8
5 20 10 25 10 6 0 3 -5 -5 -10z m-4840 -21 c0 -5 -15 -8 -32 -7 -40 1 -380
-41 -388 -48 -2 -3 22 -2 55 1 l60 7 0 -86 0 -86 25 4 c59 11 115 18 110 13
-3 -3 -52 -15 -110 -27 -196 -40 -566 -77 -850 -84 -130 -3 -172 -2 -125 4 39
4 84 12 100 17 30 9 30 10 8 23 -11 7 -19 19 -16 26 2 6 0 15 -6 19 -6 3 -8
17 -5 31 3 13 2 24 -4 24 -5 0 -12 9 -15 20 -3 14 -14 20 -31 20 -16 0 -26 6
-26 15 0 8 -10 16 -22 17 -13 0 58 7 157 13 l180 13 -335 -4 c-184 -2 -468 0
-630 4 l-295 9 303 3 c166 1 314 3 330 4 44 3 353 15 547 21 331 11 619 25
740 36 66 6 150 9 188 7 37 -1 67 1 67 5 0 5 5 5 10 2 6 -3 10 -10 10 -16z
m4540 -4 c-46 -18 -64 -17 -25 0 17 8 37 14 45 14 8 0 -1 -7 -20 -14z m257 9
c-3 -3 -12 -4 -19 -1 -8 3 -5 6 6 6 11 1 17 -2 13 -5z m-2974 -21 c-7 -2 -19
-2 -25 0 -7 3 -2 5 12 5 14 0 19 -2 13 -5z m2654 -9 c-3 -3 -12 -4 -19 -1 -8
3 -5 6 6 6 11 1 17 -2 13 -5z m-3490 -10 c-3 -3 -12 -4 -19 -1 -8 3 -5 6 6 6
11 1 17 -2 13 -5z m3423 -9 c-19 -7 -42 -13 -50 -13 -8 0 1 6 20 13 19 7 42
13 50 13 8 0 -1 -6 -20 -13z m-6682 -12 c-16 -2 -40 -2 -55 0 -16 2 -3 4 27 4
30 0 43 -2 28 -4z m3715 -10 c-7 -2 -19 -2 -25 0 -7 3 -2 5 12 5 14 0 19 -2
13 -5z m152 -3 c-16 -4 -43 -8 -60 -8 -29 0 -29 0 -5 8 14 4 41 8 60 8 l35 0
-30 -8z m2730 0 c-11 -5 -29 -8 -40 -8 -16 0 -15 2 5 8 34 11 60 11 35 0z
m-3692 -7 c-7 -2 -19 -2 -25 0 -7 3 -2 5 12 5 14 0 19 -2 13 -5z m857 -7 c0
-3 -4 -8 -10 -11 -5 -3 -10 -1 -10 4 0 6 5 11 10 11 6 0 10 -2 10 -4z m-105
-26 c-3 -5 -16 -10 -28 -9 -21 0 -21 1 -2 9 28 12 37 12 30 0z m-4975 -10 c8
-5 11 -10 5 -10 -5 0 -17 5 -25 10 -8 5 -10 10 -5 10 6 0 17 -5 25 -10z m4925
-16 c-21 -7 -318 -54 -334 -53 -23 1 209 48 242 48 16 1 26 4 23 9 -2 4 14 5
37 3 23 -2 38 -5 32 -7z m-4894 -29 c19 -8 27 -14 19 -14 -18 0 -79 27 -64 28
7 1 27 -6 45 -14z m7629 -20 c-7 -8 -17 -12 -22 -9 -6 4 -5 10 3 15 22 14 33
10 19 -6z m-7525 -6 c22 -6 112 -27 200 -45 88 -19 135 -31 105 -28 -70 8
-317 59 -350 72 -34 14 -4 15 45 1z m4428 -6 c-7 -2 -19 -2 -25 0 -7 3 -2 5
12 5 14 0 19 -2 13 -5z m-256 -29 c-3 -3 -12 -4 -19 -1 -8 3 -5 6 6 6 11 1 17
-2 13 -5z m-48 -8 c-5 -6 -171 -32 -259 -41 -112 -12 -59 5 76 24 132 19 191
24 183 17z m-3716 -43 c-7 -2 -21 -2 -30 0 -10 3 -4 5 12 5 17 0 24 -2 18 -5z
m65 -10 c-10 -2 -26 -2 -35 0 -10 3 -2 5 17 5 19 0 27 -2 18 -5z m65 -10 c-7
-2 -21 -2 -30 0 -10 3 -4 5 12 5 17 0 24 -2 18 -5z m85 -10 c-10 -2 -26 -2
-35 0 -10 3 -2 5 17 5 19 0 27 -2 18 -5z m80 -10 c-10 -2 -26 -2 -35 0 -10 3
-2 5 17 5 19 0 27 -2 18 -5z m90 -10 c-10 -2 -26 -2 -35 0 -10 3 -2 5 17 5 19
0 27 -2 18 -5z m105 -10 c-7 -2 -21 -2 -30 0 -10 3 -4 5 12 5 17 0 24 -2 18
-5z m120 -10 c-7 -2 -21 -2 -30 0 -10 3 -4 5 12 5 17 0 24 -2 18 -5z m3724 -9
c-3 -3 -12 -4 -19 -1 -8 3 -5 6 6 6 11 1 17 -2 13 -5z m-70 -10 c-3 -3 -12 -4
-19 -1 -8 3 -5 6 6 6 11 1 17 -2 13 -5z m-987 -103 c0 -14 -301 -42 -430 -39
l-75 1 95 8 c52 5 151 15 220 23 157 17 190 18 190 7z m-77 -38 c-7 -2 -19 -2
-25 0 -7 3 -2 5 12 5 14 0 19 -2 13 -5z m-3430 -10 c-7 -2 -19 -2 -25 0 -7 3
-2 5 12 5 14 0 19 -2 13 -5z"/>
<path d="M3814 7295 c-70 -72 -69 -158 1 -239 33 -36 37 -38 93 -37 64 1 106
13 134 38 23 21 23 41 1 21 -10 -8 -25 -19 -33 -23 -13 -8 -13 -7 -1 8 7 9 10
17 5 17 -4 0 -3 5 3 11 16 16 3 59 -21 70 -54 25 -131 77 -149 101 l-20 27 29
25 c18 15 23 25 15 26 -8 0 -34 -20 -57 -45z"/>
<path d="M4535 7070 c9 -16 18 -30 21 -30 2 0 -2 14 -11 30 -9 17 -18 30 -21
30 -2 0 2 -13 11 -30z"/>
<path d="M2596 4935 c-9 -14 -13 -25 -9 -25 10 0 36 40 30 46 -2 3 -12 -7 -21
-21z"/>
<path d="M2550 4838 c-17 -35 -22 -52 -13 -39 20 27 54 101 48 101 -3 0 -18
-28 -35 -62z"/>
<path d="M3260 4564 c0 -6 7 -19 16 -30 14 -18 14 -18 3 6 -14 31 -19 36 -19
24z"/>
<path d="M2310 4470 c-11 -21 -20 -43 -20 -47 0 -10 34 45 43 70 12 31 -2 18
-23 -23z"/>
<path d="M5320 3981 c14 -11 28 -21 32 -21 4 0 9 -9 13 -19 3 -10 15 -21 25
-24 26 -7 26 -27 1 -27 -11 0 -23 -4 -26 -10 -4 -6 12 -10 40 -10 41 0 45 2
36 19 -14 26 -75 78 -114 96 l-32 16 25 -20z"/>
<path d="M5490 7061 c-30 -11 -65 -31 -77 -45 -22 -26 -43 -85 -43 -121 1 -40
39 -104 81 -135 25 -17 44 -40 45 -53 2 -12 5 -48 8 -80 2 -32 9 -63 14 -70 5
-7 24 -61 42 -122 31 -106 57 -180 154 -444 117 -318 256 -501 554 -731 19
-14 17 -18 -53 -90 l-73 -74 -11 44 c-23 90 -55 144 -123 212 -57 55 -82 72
-151 99 -75 29 -92 32 -192 33 -94 0 -153 -8 -209 -30 -9 -4 -13 36 -15 173
-1 98 -4 180 -7 182 -2 2 -86 5 -186 5 l-183 1 0 -577 c0 -317 4 -580 8 -585
5 -4 100 -8 210 -9 111 0 258 -1 327 -2 l125 -2 -106 -103 c-58 -56 -121 -113
-141 -127 -95 -65 -104 -193 -19 -277 45 -45 96 -65 166 -66 51 -1 71 5 117
31 48 26 61 30 89 22 38 -10 231 -16 328 -9 68 4 81 -4 58 -35 -10 -14 -31
-20 -87 -24 -53 -3 -71 -1 -66 7 4 7 0 11 -13 11 -10 0 -21 6 -23 12 -3 9 -11
10 -26 3 -19 -9 -20 -13 -9 -35 26 -54 167 -85 230 -51 38 20 54 64 33 96 -19
29 -20 35 -3 35 31 0 181 55 272 99 112 55 255 160 329 242 27 30 65 88 85
129 32 68 36 82 34 155 -1 44 -3 91 -5 104 -2 19 4 26 39 40 58 23 78 43 65
67 -6 11 -13 27 -16 37 -7 22 -33 32 -127 47 -59 10 -75 16 -76 30 -1 16 12
17 145 19 144 1 147 2 170 27 33 37 29 80 -8 99 -31 16 -245 34 -404 35 l-79
0 86 87 86 87 48 -13 c26 -7 103 -26 171 -42 155 -36 210 -63 295 -147 l68
-67 -65 -6 c-102 -9 -156 -55 -156 -135 0 -25 9 -44 34 -71 30 -33 39 -37 93
-41 l59 -4 13 -88 c26 -188 139 -344 351 -487 91 -61 271 -142 361 -162 26 -6
59 -15 74 -21 16 -6 62 -11 104 -12 73 0 75 -1 44 -14 -39 -17 -47 -28 -39
-59 7 -29 62 -50 97 -36 39 14 61 45 54 74 -7 27 -3 30 67 41 34 6 40 3 80
-37 114 -114 309 -72 349 75 20 77 -9 138 -87 184 -29 17 -46 35 -50 52 -3 15
-13 52 -21 82 -9 30 -16 71 -17 90 l-1 35 90 30 c50 17 95 33 102 38 8 5 13
-2 15 -20 l3 -28 168 -3 167 -2 0 231 c0 200 2 235 17 260 21 35 43 43 89 34
25 -4 41 -16 54 -38 18 -29 20 -52 20 -259 l0 -228 43 -1 c23 -1 110 -1 192
-1 l150 0 5 94 c5 84 6 90 17 65 23 -51 101 -123 166 -153 60 -28 68 -29 212
-29 127 0 159 3 207 21 52 19 60 19 79 6 17 -12 51 -13 187 -9 92 3 168 6 170
6 1 1 1 256 0 569 l-3 567 -205 0 -205 0 -3 -158 c-2 -146 -4 -158 -20 -151
-32 14 -242 17 -306 4 -124 -25 -214 -85 -291 -193 l-21 -28 -19 53 c-40 112
-148 178 -292 178 -76 0 -200 -27 -235 -51 -33 -24 -36 -24 -40 4 -3 21 -6 22
-138 25 -74 1 -142 -2 -150 -8 -12 -7 -14 -27 -13 -86 2 -42 0 -80 -3 -86 -4
-5 -19 12 -34 39 -36 62 -88 109 -159 141 -81 37 -257 43 -354 13 -37 -11 -76
-25 -88 -31 -11 -6 -30 -13 -41 -15 -32 -7 -120 -78 -152 -123 -42 -61 -59
-117 -64 -217 -3 -65 0 -105 12 -144 9 -30 14 -56 12 -58 -10 -10 -62 33 -156
128 -58 59 -114 112 -125 117 -19 11 -18 13 18 49 l38 38 17 -22 c26 -32 110
-41 142 -15 21 17 23 24 15 48 -8 22 -20 31 -48 38 -20 5 -37 14 -37 19 0 5
46 53 101 106 156 148 288 336 346 491 85 227 94 530 24 783 l-18 66 24 23
c14 13 31 35 39 50 19 37 18 122 -3 165 -20 42 -82 90 -129 99 -96 18 -198
-51 -213 -143 -5 -34 -12 -41 -57 -63 -76 -37 -194 -121 -187 -133 3 -6 1 -7
-6 -3 -13 9 -142 -79 -256 -175 -44 -36 -107 -88 -141 -115 -34 -27 -130 -112
-214 -189 -84 -77 -170 -150 -191 -163 l-38 -22 -26 24 c-14 14 -56 45 -93 71
-82 56 -163 115 -363 265 -85 64 -194 142 -244 174 -106 68 -115 78 -115 126
0 41 -35 98 -89 143 -42 35 -158 103 -191 112 -14 3 2 -9 35 -27 146 -82 210
-141 217 -203 2 -18 1 -32 -3 -29 -4 2 -10 -2 -13 -8 -5 -14 -6 -12 -79 83
-21 28 -41 48 -45 45 -3 -3 9 -24 26 -45 54 -67 35 -58 -32 15 -36 39 -80 77
-98 86 -18 9 -55 27 -83 40 -27 12 -52 26 -55 29 -3 4 -20 10 -38 14 -19 4
-48 19 -65 34 -81 69 -140 82 -227 52z m173 -53 c35 -42 38 -99 5 -122 -26
-18 -89 -12 -127 13 -33 21 -53 73 -41 105 13 35 39 47 90 41 35 -4 51 -12 73
-37z m2758 -4 c53 -48 59 -110 13 -134 -19 -11 -34 -11 -80 0 -91 22 -122 85
-66 136 23 22 34 25 70 21 24 -2 52 -13 63 -23z m-2559 -87 c77 -39 209 -175
201 -205 -3 -12 -9 -22 -14 -22 -4 0 -29 -27 -54 -60 -45 -58 -47 -60 -83 -53
-69 13 -115 6 -139 -22 -13 -15 -23 -37 -23 -51 0 -33 42 -74 76 -74 17 0 25
-5 22 -12 -3 -7 -16 -46 -29 -87 -23 -73 -24 -74 -31 -40 -4 19 -17 61 -29 94
-32 88 -38 117 -53 256 l-14 126 30 59 c21 43 28 68 24 92 -5 31 -4 32 27 30
18 0 58 -14 89 -31z m2315 -89 c23 -26 43 -61 43 -77 0 -6 -28 -25 -62 -42
-92 -46 -334 -209 -441 -296 -95 -77 -501 -483 -680 -678 -55 -60 -205 -213
-332 -340 -127 -126 -281 -282 -342 -345 -144 -148 -188 -190 -175 -165 6 11
25 34 44 52 38 35 89 101 71 90 -8 -5 -13 -3 -13 4 0 6 8 9 20 6 15 -4 18 -2
12 9 -12 22 -2 74 15 74 8 0 11 5 8 10 -4 6 -27 -6 -55 -30 -26 -22 -51 -40
-55 -40 -4 0 -46 -40 -94 -88 -119 -122 -277 -271 -260 -246 18 26 268 291
464 492 83 84 202 208 265 275 63 67 238 244 388 394 242 242 311 315 255 272
-15 -11 -15 -10 1 8 10 13 22 21 26 18 9 -6 101 75 95 85 -2 4 11 22 30 40 19
19 35 30 35 26 0 -4 37 25 83 66 45 40 111 96 146 123 35 28 87 69 116 92 29
23 55 40 57 38 2 -2 44 26 93 62 98 73 194 133 211 133 6 0 20 -10 31 -22z
m-2569 -110 c5 -7 13 -40 16 -73 10 -86 14 -110 36 -205 43 -192 60 -269 60
-277 0 -4 -9 3 -20 17 l-21 25 7 -30 c4 -16 13 -47 20 -67 7 -21 11 -38 8 -38
-7 0 -24 49 -49 145 -13 50 -33 117 -45 150 -12 33 -24 80 -26 105 -2 25 -7
52 -10 60 -13 35 -23 127 -18 162 7 38 23 49 42 26z m530 -28 l23 -19 -26 -28
c-14 -15 -44 -59 -67 -98 -22 -38 -58 -97 -79 -130 -22 -32 -42 -71 -45 -85
-3 -14 -10 -36 -16 -50 -33 -77 -22 -272 20 -371 32 -73 111 -179 202 -269 88
-87 265 -227 281 -223 16 5 9 -14 -12 -33 -14 -12 -24 -15 -33 -9 -8 6 -39 27
-69 48 -144 98 -279 244 -376 405 -86 142 -111 214 -111 321 0 87 33 229 70
301 53 104 180 261 209 260 3 -1 16 -9 29 -20z m2228 0 c12 0 21 -6 21 -12 -1
-7 9 -46 21 -86 23 -71 49 -210 59 -302 5 -48 -24 -187 -53 -255 -20 -47 -30
-33 -15 21 21 77 2 42 -29 -53 -78 -235 -155 -333 -578 -737 -118 -113 -175
-183 -198 -247 -22 -61 -23 -204 -1 -244 9 -16 22 -41 29 -55 57 -114 190
-225 359 -302 52 -23 97 -46 100 -50 3 -5 50 -24 105 -44 107 -38 227 -59 312
-56 55 2 112 -18 112 -41 0 -9 -31 -12 -122 -10 -88 1 -112 -1 -83 -7 22 -4
61 -6 86 -3 29 3 49 1 53 -6 5 -8 -13 -11 -62 -11 -100 0 -164 10 -158 25 3 9
-11 15 -42 20 -114 16 -235 57 -392 132 -81 39 -108 59 -186 137 -75 75 -99
107 -135 180 l-44 89 0 136 c0 133 1 138 32 201 36 73 181 236 353 397 244
227 336 369 415 638 24 80 27 108 29 255 1 192 -7 252 -37 282 l-22 21 25 -6
c14 -4 35 -7 46 -7z m-155 -67 c0 -27 1 -90 2 -140 1 -51 0 -93 -2 -93 -2 0
-29 7 -60 14 -79 21 -251 49 -257 43 -3 -3 18 -10 48 -15 29 -6 94 -18 143
-27 50 -9 100 -23 113 -31 26 -17 31 -60 6 -50 -9 3 -48 11 -88 17 -39 5 -107
16 -151 24 -44 7 -100 17 -125 21 l-44 6 24 20 c14 10 37 30 52 44 14 13 33
24 40 24 8 0 32 15 54 33 78 65 216 157 237 157 4 0 7 -21 8 -47z m-1936 -3
c24 -16 47 -30 50 -30 29 0 705 -520 705 -542 0 -5 -7 -11 -16 -15 -14 -5 -13
-8 6 -23 l22 -16 -26 -18 c-26 -16 -28 -16 -69 12 -149 101 -263 185 -336 246
-47 39 -97 80 -112 91 -99 73 -218 167 -239 187 -14 13 -40 34 -57 46 -18 13
-33 28 -33 33 0 9 48 59 57 59 2 0 24 -13 48 -30z m2183 -100 c0 -22 -1 -22
-8 5 -4 17 -8 39 -8 50 0 16 2 15 8 -5 4 -14 8 -36 8 -50z m-2572 35 l24 -24
-20 -24 c-30 -34 -87 -35 -102 -2 -12 27 1 51 37 65 30 13 34 12 61 -15z m322
-76 c17 -12 32 -24 32 -28 0 -8 -65 -33 -99 -39 -13 -1 -37 -10 -53 -18 -40
-20 -38 -1 8 76 35 58 37 60 58 45 11 -9 36 -25 54 -36z m71 -52 c15 -18 -14
-43 -52 -45 -16 -1 -43 -8 -60 -16 -43 -19 -127 -46 -144 -46 -17 0 -17 29 0
34 73 22 159 52 187 67 43 22 54 23 69 6z m1566 -98 c28 -4 86 -15 130 -23 44
-9 106 -22 138 -28 33 -6 61 -17 64 -24 6 -16 -22 -143 -35 -156 -5 -5 -28 0
-55 12 -88 39 -441 127 -456 114 -8 -7 5 -12 49 -19 102 -15 327 -75 390 -104
52 -24 63 -36 44 -52 -12 -10 -24 -10 -52 -2 -334 101 -468 136 -484 127 -4
-3 -8 -1 -8 4 0 14 26 33 33 25 4 -3 7 -1 7 5 0 6 34 40 76 77 54 47 81 64 93
59 9 -4 39 -10 66 -15z m-1415 -51 l72 -63 -43 -12 c-24 -7 -80 -21 -124 -32
-103 -26 -262 -77 -299 -97 -33 -17 -46 -8 -46 32 0 12 -3 42 -6 67 -6 40 -4
47 18 61 22 14 310 102 345 105 6 1 44 -27 83 -61z m138 -94 c15 -9 38 -30 52
-47 l25 -31 -32 19 c-31 18 -35 18 -135 1 -108 -19 -236 -59 -302 -94 -41 -22
-144 -48 -153 -38 -14 14 21 65 55 79 69 29 234 78 325 98 50 10 93 21 95 24
10 10 45 5 70 -11z m1024 -42 c-3 -10 -7 -11 -12 -2 -5 9 -9 9 -14 1 -4 -6 -1
-14 8 -17 8 -3 12 -12 9 -20 -7 -18 -18 -18 -37 2 -12 11 -13 20 -6 35 12 22
61 23 52 1z m875 -39 c-3 -10 -5 -2 -5 17 0 19 2 27 5 18 2 -10 2 -26 0 -35z
m-827 12 c0 -8 -4 -15 -10 -15 -5 0 -10 7 -10 15 0 8 5 15 10 15 6 0 10 -7 10
-15z m-102 -52 c22 -18 91 -17 98 1 11 27 37 26 167 -9 111 -30 281 -83 296
-92 3 -2 -3 -11 -13 -21 -9 -9 -35 -46 -58 -82 -39 -62 -68 -96 -202 -240 -74
-79 -193 -180 -211 -180 -8 0 -26 17 -41 38 -16 20 -39 49 -53 65 l-25 27 46
0 c55 0 85 22 94 66 5 25 1 37 -16 54 -22 22 -58 24 -146 5 -29 -6 -34 -3 -78
59 -26 37 -59 78 -74 91 l-27 25 35 1 c83 4 125 -5 403 -86 71 -21 137 -35
150 -31 29 7 67 42 67 62 0 29 -55 71 -115 89 -143 42 -345 85 -397 85 -21 0
-38 3 -38 7 0 4 23 31 52 60 46 46 53 51 61 35 5 -9 17 -23 25 -29z m-835 -18
c29 -13 65 -38 81 -54 l28 -30 -38 -10 c-22 -6 -84 -20 -139 -31 -95 -20 -188
-44 -302 -76 -77 -22 -92 -60 -47 -113 35 -42 75 -41 227 8 67 22 156 49 197
59 41 11 97 27 123 35 58 18 56 15 -42 -78 -35 -33 -82 -77 -103 -98 -22 -20
-43 -35 -48 -32 -4 3 -33 0 -65 -7 -37 -7 -52 -14 -43 -19 9 -6 6 -9 -9 -9
-47 0 -22 27 40 45 34 9 78 23 97 31 31 11 32 13 10 14 -14 0 -45 -7 -70 -15
-25 -8 -65 -21 -90 -28 -34 -10 -46 -19 -48 -36 -4 -26 23 -71 42 -71 15 0 25
-27 19 -47 -3 -7 -9 -13 -14 -13 -12 0 -212 152 -262 199 -74 69 -191 239
-179 258 8 11 206 74 322 102 47 11 103 24 125 29 73 18 133 14 188 -13z m797
-80 c75 -8 273 -55 354 -85 56 -21 67 -37 47 -68 -7 -11 -30 -8 -122 18 -63
17 -161 45 -219 61 -58 16 -122 29 -143 29 -23 0 -36 4 -32 10 3 6 -1 10 -10
10 -13 0 -14 4 -5 21 9 15 18 19 38 15 15 -3 56 -8 92 -11z m-590 -25 c0 -5
-6 -10 -12 -11 -38 -2 -89 -16 -286 -75 -119 -36 -225 -68 -234 -71 -10 -3
-18 -9 -18 -14 0 -5 -13 -9 -30 -9 -16 0 -30 5 -30 10 0 6 5 10 10 10 6 0 10
7 10 15 0 8 6 12 14 9 8 -3 17 -1 21 5 4 7 -5 11 -22 12 -23 0 -21 3 17 15 54
17 50 16 50 4 0 -5 -8 -10 -17 -10 -9 0 -14 -3 -10 -6 9 -9 48 6 42 17 -4 5 2
10 12 11 10 0 29 2 43 3 20 2 313 76 355 90 23 8 85 4 85 -5z m15 -20 c-3 -5
-14 -10 -23 -10 -15 0 -15 2 -2 10 20 13 33 13 25 0z m-1530 -130 c30 -8 30
-8 -7 -9 l-38 -1 0 -210 c0 -115 2 -210 4 -210 2 0 27 16 56 35 67 45 141 66
234 67 97 0 127 -7 196 -48 97 -57 147 -129 176 -251 10 -46 13 -82 8 -113
l-8 -45 -7 74 c-8 84 -30 148 -70 207 -114 167 -361 205 -541 84 -23 -16 -49
-30 -55 -30 -10 0 -13 51 -13 220 l0 220 -120 0 c-73 0 -120 4 -120 10 0 12
259 12 305 0z m5245 -30 c0 -12 -8 -12 -35 0 -18 8 -17 9 8 9 15 1 27 -3 27
-9z m271 -71 c11 -129 10 -531 -1 -524 -5 3 -10 31 -10 61 0 34 -4 53 -10 49
-5 -3 -10 -16 -10 -29 0 -23 -15 -31 -112 -56 -33 -9 -48 -18 -52 -34 -5 -18
-8 -19 -17 -6 -8 12 -9 10 -4 -10 26 -105 17 -162 -32 -220 -111 -130 -347
-117 -419 23 -27 51 -34 120 -19 178 l14 54 -19 -25 c-11 -14 -20 -28 -20 -32
0 -5 -9 -8 -19 -8 -11 0 -21 -4 -23 -10 -1 -5 -15 -11 -30 -12 -16 -1 -28 -6
-28 -10 0 -4 -5 -8 -12 -8 -6 0 -22 -10 -35 -22 l-23 -21 -10 24 c-7 18 -8 10
-4 -36 9 -87 22 -141 45 -187 11 -22 18 -42 16 -45 -3 -2 -22 30 -43 72 -36
72 -38 83 -42 190 -5 130 8 183 62 260 40 56 122 116 190 139 62 20 196 21
261 2 26 -8 72 -31 102 -51 l54 -36 -3 206 -3 207 125 -4 125 -4 6 -75z
m-5814 -131 c-1 -40 -3 -10 -3 67 0 77 1 110 3 73 2 -37 2 -100 0 -140z m2163
132 c56 -11 128 -20 160 -20 58 0 73 -9 62 -37 -4 -14 -2 -14 -227 12 -66 8
-133 11 -149 8 -31 -6 -30 1 3 38 21 23 31 23 151 -1z m328 4 c16 -5 22 -14
22 -34 0 -39 -22 -55 -59 -42 -16 6 -32 8 -35 5 -3 -3 -4 4 -1 15 2 15 0 19
-11 15 -8 -3 -14 1 -14 10 0 8 12 20 28 25 33 13 41 13 70 6z m-456 -127 c10
-12 18 -26 18 -31 0 -10 -118 0 -152 13 -22 9 -22 9 -3 17 11 4 26 14 34 22
20 19 81 7 103 -21z m255 27 c-3 -3 -12 -4 -19 -1 -8 3 -5 6 6 6 11 1 17 -2
13 -5z m-289 -79 c113 -18 354 -86 429 -121 46 -22 72 -49 58 -62 -3 -3 -37 5
-77 18 -40 12 -116 33 -168 46 -52 14 -147 38 -210 55 -63 17 -142 34 -174 37
l-59 5 22 19 c28 22 53 22 179 3z m1582 -46 c141 -20 226 -78 281 -194 25 -51
29 -72 29 -142 0 -49 -4 -83 -10 -83 -5 0 -11 15 -11 33 -1 17 -3 24 -6 15 -4
-16 -21 -23 -45 -19 -5 0 -8 -3 -8 -8 0 -5 12 -12 28 -14 15 -2 -101 -5 -258
-5 -177 -1 -279 2 -270 7 8 6 18 7 24 4 5 -3 6 -1 2 5 -4 7 -18 12 -32 12 -13
0 -24 4 -24 9 0 5 -13 14 -30 20 -16 5 -30 15 -30 20 0 6 -13 17 -30 26 -38
19 -47 53 -25 95 9 18 12 29 7 26 -19 -12 -63 -140 -69 -200 -7 -78 17 -175
57 -236 l31 -45 -31 35 c-60 68 -91 206 -71 315 29 155 120 262 265 310 75 25
128 28 226 14z m1056 -41 c115 -59 152 -179 135 -433 l-8 -120 -3 85 c-1 47
-5 75 -7 62 -2 -12 -9 -20 -14 -16 -5 3 -6 11 -2 17 5 9 3 9 -8 1 -19 -15 -68
-23 -71 -12 -6 17 -38 -4 -44 -28 -3 -13 -10 -24 -15 -24 -5 0 -9 -53 -10
-117 -1 -65 -4 -129 -9 -143 l-7 -25 -6 25 c-4 14 -8 117 -9 230 -3 196 -4
207 -27 247 -42 73 -129 101 -208 68 -90 -38 -113 -86 -114 -247 -1 -68 -3
-112 -6 -98 -14 96 -12 92 -34 76 -15 -10 -29 -12 -51 -5 -17 4 -35 6 -39 3
-15 -9 -47 15 -52 38 -2 13 -5 -37 -6 -109 0 -80 -5 -133 -11 -133 -6 0 -11
120 -12 327 l-3 327 -25 7 c-14 4 28 7 93 8 l117 1 0 -55 c0 -30 2 -55 5 -55
4 0 32 18 63 40 31 22 84 52 117 66 81 34 195 30 271 -8z m-1718 -177 c9 -5
26 -12 37 -16 20 -6 20 -7 1 -21 -27 -19 -42 -18 -71 8 -36 31 -12 53 33 29z
m-997 -22 c132 -11 159 -19 159 -45 0 -14 10 -14 -254 6 -71 6 -176 10 -233
10 -103 0 -123 9 -69 30 30 12 240 12 397 -1z m-1302 -48 c83 -59 91 -161 18
-238 -38 -40 -48 -45 -99 -50 -82 -8 -142 16 -168 68 -63 122 30 255 171 245
28 -2 59 -12 78 -25z m1720 -46 c9 -1 15 -5 14 -9 -1 -3 -5 -20 -8 -37 -7 -29
-9 -31 -43 -25 -32 5 -39 1 -69 -32 -33 -36 -34 -37 -49 -17 -25 32 -38 59
-25 51 6 -4 11 0 11 8 0 9 5 16 11 16 5 0 8 4 5 9 -11 17 84 52 118 44 10 -3
26 -6 35 -8z m-709 -79 c129 -14 247 -29 263 -35 24 -9 46 -37 36 -45 -5 -3
-131 9 -184 19 -31 5 -37 4 -25 -5 12 -9 4 -10 -35 -6 -27 4 -113 13 -190 21
-76 9 -143 19 -147 23 -18 18 3 43 42 51 3 0 111 -10 240 -23z m-1376 -114
c19 -37 54 -68 98 -87 42 -17 151 -20 213 -5 61 14 53 4 -12 -15 -82 -24 -175
-17 -231 19 -54 34 -93 93 -98 148 l-4 43 10 -38 c5 -21 16 -50 24 -65z m2451
63 c14 -13 25 -28 25 -32 0 -4 -22 -6 -50 -5 -53 4 -60 14 -33 44 21 24 29 23
58 -7z m1185 -92 l0 -78 -33 39 c-37 43 -30 43 -152 6 -134 -40 -320 -15 -355
49 -27 51 -30 50 258 54 147 1 270 3 275 5 4 1 7 -33 7 -75z m-1120 52 c0 -2
-7 -5 -15 -9 -9 -3 -15 0 -15 9 0 9 6 12 15 9 8 -4 15 -7 15 -9z m-29 -24 c41
-11 118 -33 172 -49 53 -17 97 -27 97 -24 1 10 30 -30 30 -40 0 -5 -12 -6 -27
-2 -22 4 -25 3 -13 -5 13 -9 13 -11 -2 -11 -9 0 -18 3 -20 8 -3 8 -149 52
-173 52 -8 0 -15 5 -15 11 0 8 -13 10 -37 6 -39 -6 -130 22 -117 36 4 4 0 7
-8 7 -9 0 -18 -6 -21 -12 -2 -7 -7 -11 -9 -8 -3 3 -2 15 3 28 11 28 41 29 140
3z m-1241 -25 c42 -21 110 -101 110 -129 0 -6 -22 -8 -62 -4 -66 7 -78 9 -225
33 -51 9 -103 12 -115 8 -21 -6 -22 -6 -8 12 8 10 33 34 54 53 22 20 44 41 50
48 17 19 143 5 196 -21z m1909 -59 c69 -31 219 -29 321 6 53 18 77 22 82 14
18 -29 -231 -85 -312 -71 -39 7 -138 59 -158 83 -7 9 -17 25 -23 36 -6 11 2 5
17 -14 15 -18 48 -42 73 -54z m-1632 -4 c4 -16 8 -64 8 -108 0 -91 -27 -162
-85 -225 l-32 -35 24 35 c30 42 58 95 58 110 0 21 -16 9 -35 -27 -17 -34 -48
-74 -118 -152 -29 -32 -148 -111 -227 -151 -167 -84 -349 -125 -510 -115 -52
3 -103 8 -112 11 -26 8 -10 34 21 34 15 0 31 3 34 7 4 3 17 7 29 8 13 2 59 6
102 10 44 4 112 17 151 30 74 23 268 109 295 131 8 6 48 29 89 50 80 42 174
133 205 198 21 44 39 151 32 182 -6 24 4 32 41 33 16 1 25 -7 30 -26z m928
-29 c50 -14 110 -35 135 -46 l45 -21 -57 -12 c-32 -7 -64 -18 -73 -25 -26 -22
-18 -68 18 -101 63 -59 72 -71 84 -112 7 -23 10 -43 8 -45 -15 -16 -150 101
-193 167 -66 98 -104 221 -69 221 7 0 53 -11 102 -26z m-1435 -44 c20 -5 76
-11 125 -14 137 -6 235 -25 235 -45 0 -42 -32 -41 -270 3 -104 19 -177 29
-208 27 -19 -1 -21 2 -12 19 9 16 8 19 -6 13 -12 -4 -15 -3 -10 6 8 13 78 8
146 -9z m1911 -68 l22 -19 -29 -8 c-16 -5 -37 -7 -48 -6 -11 2 -16 -2 -12 -8
4 -6 2 -11 -4 -11 -6 0 -66 -5 -132 -11 -127 -12 -188 -7 -188 15 0 29 47 46
132 47 69 1 205 11 229 17 4 1 17 -6 30 -16z m-401 -6 c0 -3 -4 -8 -10 -11 -5
-3 -10 -1 -10 4 0 6 5 11 10 11 6 0 10 -2 10 -4z m-1578 -25 c57 -11 157 -27
223 -37 66 -9 122 -18 124 -20 7 -6 -39 -56 -81 -88 -32 -24 -48 -31 -63 -25
-11 4 -67 15 -125 24 -58 10 -118 21 -135 25 -16 5 -59 12 -95 15 -36 4 -69
10 -74 13 -9 5 101 111 116 112 4 0 53 -9 110 -19z m1562 -17 c3 -8 2 -12 -4
-9 -6 3 -10 10 -10 16 0 14 7 11 14 -7z m452 -84 c39 0 45 -15 12 -26 -13 -4
-51 -20 -84 -36 -69 -32 -95 -69 -75 -106 28 -52 107 -45 286 27 55 23 103 41
107 41 3 0 16 -30 28 -66 l22 -66 -26 -23 c-51 -44 -154 -41 -347 10 -117 31
-154 57 -175 120 -9 28 -20 54 -25 60 -5 5 -9 21 -9 37 l0 27 113 3 c61 2 118
2 125 1 8 -2 29 -3 48 -3z m394 -50 c11 -22 20 -55 20 -75 0 -31 3 -35 28 -36
24 0 25 -1 7 -9 -34 -15 -85 -12 -85 5 0 8 -6 29 -14 47 -7 18 -18 48 -24 66
-9 28 -8 32 9 32 10 0 19 5 19 11 0 19 20 -2 40 -41z m-2478 6 c61 -14 213
-46 227 -46 3 0 -3 -7 -13 -15 -11 -8 -29 -12 -40 -10 -42 10 -290 35 -349 36
-75 1 -109 10 -99 25 11 17 31 21 124 23 50 1 114 -4 150 -13z m2288 -16 c0
-4 -17 -10 -37 -13 -21 -2 -64 -14 -96 -27 -32 -12 -61 -20 -64 -17 -9 10 8
27 26 27 9 0 21 4 27 10 20 20 118 48 132 38 6 -6 12 -14 12 -18z m-2030 -50
c-8 -5 -17 -7 -19 -4 -3 3 1 9 9 14 8 5 17 7 19 4 3 -3 -1 -9 -9 -14z m1800
15 c0 -3 -15 -12 -32 -20 -29 -13 -30 -14 -9 -15 20 0 22 -2 11 -16 -12 -13
-15 -13 -34 5 -20 21 -20 21 -1 36 19 14 65 21 65 10z m-2138 -64 c51 -10 108
-25 127 -33 l34 -14 -89 -25 c-49 -15 -96 -29 -104 -33 -15 -6 -33 25 -67 112
-6 15 -12 16 99 -7z m-210 -8 c15 -18 48 -85 48 -98 0 -4 -5 -5 -12 -3 -7 3
-37 -2 -68 -9 -52 -12 -56 -12 -72 8 -10 12 -18 26 -18 33 1 11 89 86 101 86
3 0 13 -8 21 -17z m-222 -18 c47 -29 65 -59 61 -100 -4 -47 -23 -59 -87 -57
-64 2 -121 32 -130 69 -7 24 29 93 49 94 7 0 3 4 -8 9 -15 6 -8 9 28 9 34 1
58 -6 87 -24z m3138 -55 c39 -36 44 -88 12 -120 -26 -26 -65 -25 -120 3 -34
17 -47 30 -54 56 -9 31 -7 36 22 62 44 40 95 39 140 -1z m-618 -120 l25 -8
-25 0 c-14 0 -34 3 -45 8 l-20 9 20 -1 c11 0 31 -4 45 -8z m-2769 -47 c13 -16
12 -17 -3 -4 -10 7 -18 15 -18 17 0 8 8 3 21 -13z m2962 -73 c19 -17 -4 -36
-39 -32 -38 5 -56 28 -33 43 14 8 58 2 72 -11z m-2178 -20 c3 -5 1 -10 -4 -10
-6 0 -11 5 -11 10 0 6 2 10 4 10 3 0 8 -4 11 -10z"/>
<path d="M5821 6893 c7 -12 15 -20 18 -17 3 2 -3 12 -13 22 -17 16 -18 16 -5
-5z"/>
<path d="M5788 6860 c3 -18 0 -30 -7 -30 -6 0 -11 10 -12 23 0 21 -1 21 -9 2
-15 -35 -11 -46 25 -61 31 -13 38 -13 60 2 26 17 35 67 14 80 -7 4 -9 0 -5
-14 7 -22 -19 -56 -38 -49 -6 2 -11 19 -11 37 0 18 -5 35 -11 37 -7 2 -9 -8
-6 -27z"/>
<path d="M7404 6298 l-29 -33 33 29 c30 28 37 36 29 36 -2 0 -16 -15 -33 -32z"/>
<path d="M10355 5255 c-125 -44 -168 -240 -73 -332 47 -46 96 -63 177 -63 141
0 221 70 221 192 0 159 -162 260 -325 203z m92 -85 c58 -35 77 -114 47 -190
-42 -105 -187 -107 -230 -4 -30 71 -12 174 35 199 38 21 110 19 148 -5z"/>
<path d="M8536 5298 c-44 -12 -112 -75 -122 -113 -14 -56 -12 -56 202 -54
l196 1 -6 31 c-9 45 -45 93 -87 116 -44 25 -130 34 -183 19z m86 -69 c15 -8
63 -68 56 -70 -2 0 -58 -3 -126 -6 -118 -5 -123 -4 -113 14 20 34 49 63 73 72
24 10 81 5 110 -10z"/>
<path d="M8490 5099 c-64 -3 -19 -6 139 -7 129 -1 232 0 230 2 -7 7 -270 11
-369 5z"/>
<path d="M8480 5069 c0 -5 5 -7 10 -4 6 3 10 8 10 11 0 2 -4 4 -10 4 -5 0 -10
-5 -10 -11z"/>
<path d="M8565 5070 c7 -12 65 -14 65 -2 0 4 -16 9 -36 10 -23 2 -33 -1 -29
-8z"/>
<path d="M8725 5070 c-4 -6 11 -10 36 -10 48 0 49 4 2 13 -18 4 -35 2 -38 -3z"/>
<path d="M6630 4459 c-40 -36 -42 -39 -15 -28 33 14 75 48 75 61 0 15 -15 7
-60 -33z"/>
<path d="M5848 6993 c6 -2 18 -2 25 0 6 3 1 5 -13 5 -14 0 -19 -2 -12 -5z"/>
<path d="M5898 6983 c7 -3 16 -2 19 1 4 3 -2 6 -13 5 -11 0 -14 -3 -6 -6z"/>
<path d="M7852 6908 c-11 -13 -24 -35 -27 -50 -6 -23 -2 -29 25 -43 54 -28
110 7 110 67 0 13 -5 29 -12 36 -20 20 -72 14 -96 -10z m64 4 c37 -25 12 -82
-37 -82 -33 0 -38 18 -16 63 12 26 32 34 53 19z"/>
<path d="M7627 6784 c-49 -32 -75 -84 -59 -119 16 -34 58 -53 80 -37 9 7 26
16 38 21 30 13 74 69 74 95 0 65 -65 85 -133 40z m103 -9 c11 -29 4 -55 -15
-55 -7 0 -16 -7 -19 -16 -4 -9 -9 -14 -13 -10 -4 3 -17 -4 -30 -16 -18 -17
-28 -20 -40 -12 -31 19 -38 40 -20 59 9 9 17 20 17 25 0 13 63 50 88 50 15 0
26 -8 32 -25z"/>
<path d="M5418 6665 c-50 -27 -46 -123 5 -146 19 -9 31 -7 56 5 36 19 35 16
16 52 -13 26 -15 26 -15 7 0 -22 -13 -25 -39 -9 -11 7 -13 5 -8 -7 3 -10 2
-17 -2 -17 -11 0 -21 25 -21 55 0 34 27 58 59 51 25 -6 25 -6 7 9 -24 18 -24
18 -58 0z"/>
<path d="M7376 6628 c-16 -12 -35 -37 -43 -56 -12 -30 -12 -37 2 -58 23 -36
61 -31 101 12 73 77 22 163 -60 102z m63 -7 c9 -6 11 -18 6 -40 -5 -25 -11
-31 -25 -26 -12 4 -22 -1 -28 -12 -8 -13 -13 -15 -24 -5 -8 6 -18 9 -21 5 -4
-3 -7 -1 -7 6 0 15 63 81 77 81 4 0 14 -4 22 -9z"/>
<path d="M5450 6343 c-45 -11 -48 -89 -5 -117 31 -21 48 -20 75 2 21 17 22 22
11 53 -12 36 -54 68 -81 62z m44 -29 c19 -18 21 -60 4 -70 -6 -4 -16 0 -23 9
-16 22 -25 21 -25 0 0 -15 -2 -16 -10 -3 -32 49 14 104 54 64z"/>
<path d="M6996 6324 c-18 -18 -21 -66 -5 -95 15 -29 58 -43 86 -28 40 21 39
104 -1 131 -19 13 -64 9 -80 -8z m81 -19 c17 -27 16 -57 -2 -81 -8 -10 -15
-14 -15 -7 0 7 -15 16 -32 21 -37 9 -47 36 -28 72 14 26 60 23 77 -5z"/>
<path d="M5531 6074 c-25 -32 -25 -36 -6 -74 17 -33 61 -60 85 -52 55 17 51
115 -7 141 -36 16 -49 14 -72 -15z m60 -6 c30 -25 40 -46 34 -71 -10 -37 -53
-25 -72 21 -22 53 0 82 38 50z"/>
<path d="M5670 5801 c-13 -26 11 -51 50 -51 41 0 48 19 16 47 -33 28 -52 29
-66 4z m60 -16 c0 -8 -4 -15 -9 -15 -5 0 -11 7 -15 15 -3 9 0 15 9 15 8 0 15
-7 15 -15z"/>
<path d="M8461 5785 c-44 -51 -41 -89 10 -93 24 -2 43 4 63 19 23 18 27 28 24
63 -3 38 -5 41 -34 44 -25 2 -37 -4 -63 -33z m82 13 c-2 -5 -3 -12 -3 -18 0
-5 -8 -10 -17 -11 -12 0 -13 -2 -5 -6 16 -6 -3 -33 -23 -33 -8 0 -15 -5 -17
-12 -2 -6 -10 -8 -16 -4 -15 9 -16 36 -1 36 5 0 7 5 4 11 -11 17 22 45 52 44
15 0 27 -3 26 -7z"/>
<path d="M5688 5674 c-17 -16 -7 -53 19 -74 32 -25 90 -24 107 2 9 14 6 23
-15 44 -26 25 -96 44 -111 28z m87 -54 c-3 -6 -15 -5 -30 2 -30 13 -33 33 -5
25 11 -3 20 0 20 6 0 7 5 4 11 -6 5 -9 7 -21 4 -27z"/>
<path d="M8393 5624 c-44 -16 -51 -44 -11 -44 14 0 18 5 15 15 -5 10 4 16 29
21 49 9 65 -10 22 -25 -18 -7 -41 -17 -51 -22 -12 -6 -25 -4 -42 7 -23 15 -25
15 -31 0 -20 -52 39 -67 114 -29 59 30 84 56 67 72 -19 17 -70 20 -112 5z"/>
<path d="M4479 5510 c-74 -9 -184 -52 -260 -101 -45 -28 -50 -35 -44 -58 8
-32 73 -129 100 -147 27 -20 51 -18 136 11 114 40 242 35 271 -9 19 -28 7 -34
-72 -35 -149 -2 -288 -30 -356 -74 -58 -36 -112 -100 -120 -142 -24 -132 44
-234 193 -286 116 -41 239 -36 342 13 l43 21 23 -29 22 -28 144 -1 144 0 -1
296 -1 297 -26 55 c-79 159 -297 248 -538 217z m186 -19 c19 -5 -22 -10 -110
-13 -77 -3 -151 -8 -165 -12 l-25 -7 25 12 c49 22 216 34 275 20z m125 -55
c57 -30 109 -86 131 -146 17 -43 23 -84 27 -195 2 -77 2 -138 -1 -135 -3 3
-10 62 -15 130 -11 141 -30 211 -73 263 -37 45 -116 84 -194 97 l-60 9 75 -3
c47 -2 88 -9 110 -20z m-153 -302 c-3 -3 -12 -4 -19 -1 -8 3 -5 6 6 6 11 1 17
-2 13 -5z m71 -151 c21 -5 23 -10 18 -37 -11 -56 -94 -106 -175 -106 -23 0
-42 9 -62 29 -47 47 -38 72 37 101 49 19 137 26 182 13z"/>
<path d="M11525 4630 c-3 -5 -2 -10 4 -10 5 0 13 5 16 10 3 6 2 10 -4 10 -5 0
-13 -4 -16 -10z"/>
<path d="M11451 4557 c-106 -82 -127 -97 -169 -118 -23 -12 -45 -26 -48 -31
-8 -12 79 33 132 69 59 40 154 113 154 118 0 11 -18 1 -69 -38z"/>
<path d="M8933 4509 c-42 -27 -44 -65 -7 -100 36 -34 117 -35 145 0 22 27 25
69 6 95 -21 29 -104 32 -144 5z m135 -36 c3 -32 0 -35 -33 -35 -55 0 -76 4
-96 22 l-24 20 23 6 c12 3 22 11 22 16 0 5 24 8 53 6 51 -3 52 -4 55 -35z"/>
<path d="M11641 4485 c-35 -13 -68 -29 -75 -35 -10 -11 44 8 124 43 54 24 22
19 -49 -8z"/>
<path d="M11715 4470 c-3 -6 1 -7 9 -4 18 7 21 14 7 14 -6 0 -13 -4 -16 -10z"/>
<path d="M10894 4444 c-18 -14 -18 -14 6 -3 31 14 36 19 24 19 -6 0 -19 -7
-30 -16z"/>
<path d="M11500 4440 c-9 -6 -10 -10 -3 -10 6 0 15 5 18 10 8 12 4 12 -15 0z"/>
<path d="M11624 4434 c-18 -14 -18 -15 4 -4 12 6 22 13 22 15 0 8 -5 6 -26
-11z"/>
<path d="M11393 4403 c-40 -15 -71 -28 -69 -30 4 -5 124 35 146 48 27 15 -4 8
-77 -18z"/>
<path d="M10760 4384 l-25 -15 25 7 c14 3 32 10 40 15 13 7 13 8 0 8 -8 0 -26
-6 -40 -15z"/>
<path d="M11230 4350 c-21 -7 -21 -8 -5 -9 11 0 27 4 35 9 18 11 5 11 -30 0z"/>
<path d="M11105 4328 c-143 -50 -302 -111 -310 -119 -5 -6 28 4 75 21 47 18
130 48 185 67 55 19 102 36 104 39 8 7 -23 3 -54 -8z"/>
<path d="M11055 4280 c-13 -6 -15 -9 -5 -9 8 0 22 4 30 9 18 12 2 12 -25 0z"/>
<path d="M10835 4260 c-13 -5 -14 -9 -5 -9 8 0 24 4 35 9 13 5 14 9 5 9 -8 0
-24 -4 -35 -9z"/>
<path d="M10645 4205 c-38 -13 -65 -24 -59 -24 17 -2 118 30 129 40 11 11 15
12 -70 -16z"/>
<path d="M9530 4163 c-122 -44 -155 -55 -331 -107 -216 -63 -578 -150 -824
-196 -88 -16 -203 -39 -255 -49 -217 -45 -273 -55 -435 -81 -93 -16 -155 -28
-137 -29 118 -4 1114 193 1448 285 247 69 619 189 664 215 30 17 -7 6 -130
-38z"/>
<path d="M10207 4178 c-32 -11 -57 -22 -54 -24 2 -2 35 7 73 20 38 14 62 24
54 24 -8 0 -41 -9 -73 -20z"/>
<path d="M10730 4184 c-33 -13 -33 -14 -5 -8 17 3 34 10 40 15 11 11 8 11 -35
-7z"/>
<path d="M11635 4153 l-40 -36 40 28 c51 36 49 34 44 39 -2 2 -22 -12 -44 -31z"/>
<path d="M10525 4170 c-13 -5 -14 -9 -5 -9 8 0 24 4 35 9 13 5 14 9 5 9 -8 0
-24 -4 -35 -9z"/>
<path d="M6423 4151 c-3 -12 -9 -21 -13 -21 -14 0 -21 -51 -9 -66 16 -19 73
-28 97 -15 11 6 23 25 27 42 9 38 -13 64 -63 74 -29 6 -34 4 -39 -14z m85 -29
c19 -25 9 -37 -35 -38 -34 -2 -42 2 -47 19 -12 46 50 61 82 19z"/>
<path d="M8002 4158 c-50 -50 63 -141 178 -142 55 -1 90 23 90 61 0 29 -50 54
-107 52 -38 -1 -38 -1 13 -14 60 -14 74 -22 74 -38 0 -28 -166 -3 -200 31 -11
11 -11 13 -1 7 10 -6 12 -4 7 4 -5 7 -18 16 -30 21 -16 7 -10 9 29 10 36 0 46
3 35 10 -21 14 -74 12 -88 -2z"/>
<path d="M10450 4145 c-19 -7 -28 -14 -20 -14 8 0 29 6 45 14 39 17 21 18 -25
0z"/>
<path d="M10100 4142 c-8 -3 -107 -29 -220 -58 -113 -29 -199 -53 -192 -53 16
-1 399 94 432 108 14 5 18 10 10 10 -8 -1 -22 -3 -30 -7z"/>
<path d="M8080 4120 c0 -5 5 -10 11 -10 5 0 7 5 4 10 -3 6 -8 10 -11 10 -2 0
-4 -4 -4 -10z"/>
<path d="M11504 4064 c-18 -14 -18 -15 4 -4 12 6 22 13 22 15 0 8 -5 6 -26
-11z"/>
<path d="M9545 4020 c-3 -5 -2 -10 4 -10 5 0 13 5 16 10 3 6 2 10 -4 10 -5 0
-13 -4 -16 -10z"/>
<path d="M9648 4023 c7 -3 16 -2 19 1 4 3 -2 6 -13 5 -11 0 -14 -3 -6 -6z"/>
<path d="M9690 3910 c-8 -5 -10 -10 -5 -10 6 0 17 5 25 10 8 5 11 10 5 10 -5
0 -17 -5 -25 -10z"/>
<path d="M7800 3890 l-35 -7 32 -2 c17 0 35 4 38 9 3 6 5 9 3 9 -2 -1 -19 -5
-38 -9z"/>
<path d="M6950 3866 c-53 -9 -58 -11 -30 -13 19 -2 60 3 90 11 66 16 31 18
-60 2z"/>
<path d="M6820 3856 c0 -2 14 -6 30 -8 17 -3 30 -1 30 4 0 4 -13 8 -30 8 -16
0 -30 -2 -30 -4z"/>
<path d="M10590 3740 c-8 -5 -10 -10 -5 -10 6 0 17 5 25 10 8 5 11 10 5 10 -5
0 -17 -5 -25 -10z"/>
<path d="M7458 3693 c6 -2 18 -2 25 0 6 3 1 5 -13 5 -14 0 -19 -2 -12 -5z"/>
<path d="M10635 3690 c-3 -6 1 -7 9 -4 18 7 21 14 7 14 -6 0 -13 -4 -16 -10z"/>
<path d="M10370 3665 c-19 -7 -28 -14 -20 -14 8 0 29 6 45 14 39 17 21 18 -25
0z"/>
<path d="M10398 3613 c7 -3 16 -2 19 1 4 3 -2 6 -13 5 -11 0 -14 -3 -6 -6z"/>
<path d="M10148 3593 c7 -3 16 -2 19 1 4 3 -2 6 -13 5 -11 0 -14 -3 -6 -6z"/>
<path d="M10255 3579 c-80 -25 -453 -117 -690 -168 -298 -65 -650 -126 -1137
-197 -65 -10 -116 -19 -114 -21 18 -18 901 125 1216 197 52 12 133 30 180 40
252 55 677 169 625 168 -11 0 -47 -8 -80 -19z"/>
<path d="M10008 3553 c7 -3 16 -2 19 1 4 3 -2 6 -13 5 -11 0 -14 -3 -6 -6z"/>
<path d="M9538 3433 c7 -3 16 -2 19 1 4 3 -2 6 -13 5 -11 0 -14 -3 -6 -6z"/>
</g>
</svg>
